# xmcd
#
# Track frame offsets:
# 150
# 14142
# 35112
# 45662
# 67862
# 83637
# 97037
# 122290
# 138685
# 160350
# 174710
# 191467
# 207725
# 226437
# 243050
# 264630
# 288670
#
# Disc length: 4017 seconds
#
#
# Revision: 0
# Processed by: cddbd v1.5.1PL0 Copyright (c) Steve Scherf et al.
# Submitted via: FreeRIP 2.931 
#
DISCID=fa0faf11
DTITLE=Mojo Blues Band - Blues Parade 2000 [CD2]
DYEAR=1900
DGENRE=Blues
TTITLE0=No No
TTITLE1=Roll Over Beethoven #2
TTITLE2=I´m Movin´ On
TTITLE3=Sunnyland Train
TTITLE4=Big Fat Woman
TTITLE5=I Wanna Boogie
TTITLE6=I Wonder Why
TTITLE7=Rock A While
TTITLE8=Baby You Don´t Have To Go
TTITLE9=Mack´s Cruise
TTITLE10=Baby What You Want Me To Do
TTITLE11=The Fisherman
TTITLE12=Going Through The Park
TTITLE13=All Shucks
TTITLE14=Playgirl
TTITLE15=I Got A Brand New Mojo
TTITLE16=Coal Miner´s Shift
EXTD=
EXTT0=
EXTT1=
EXTT2=
EXTT3=
EXTT4=
EXTT5=
EXTT6=
EXTT7=
EXTT8=
EXTT9=
EXTT10=
EXTT11=
EXTT12=
EXTT13=
EXTT14=
EXTT15=
EXTT16=
PLAYORDER=
